[h264 @ 0x5569956ab0c0] Reinit context to 1280x720, pix_fmt: yuv420p
Input #0, mov,mp4,m4a,3gp,3g2,mj2, from '/home/adminuser/project/media/video/original/Registrazione_schermo_2021-12-28_alle_10.22.43-HD.mp4':
  Metadata:
    major_brand     : mp42
    minor_version   : 1
    compatible_brands: isommp41mp42
    creation_time   : 2021-12-28T09:25:26.000000Z
  Duration: 00:00:53.10, start: 0.000000, bitrate: 3491 kb/s
    Stream #0:0(und): Video: h264 (Main), 1 reference frame (avc1 / 0x31637661), yuv420p(tv, bt709, progressive, left), 1280x720 [SAR 1:1 DAR 16:9], 3490 kb/s, 30 fps, 30 tbr, 30k tbn, 60k tbc (default)
    Metadata:
      creation_time   : 2021-12-28T09:25:26.000000Z
      handler_name    : Core Media Video
Input #1, png_pipe, from '/home/adminuser/project/static/images/templates/logo.png':
  Duration: N/A, bitrate: N/A
    Stream #1:0: Video: png, 1 reference frame, rgba(pc), 1920x1080 [SAR 2835:2835 DAR 16:9], 25 tbr, 25 tbn, 25 tbc
[h264 @ 0x556995746d80] Reinit context to 1280x720, pix_fmt: yuv420p
Input #2, mov,mp4,m4a,3gp,3g2,mj2, from '/home/adminuser/project/static/images/templates/Codino.mp4':
  Metadata:
    major_brand     : mp42
    minor_version   : 1
    compatible_brands: isommp41mp42
    creation_time   : 2021-07-11T07:02:58.000000Z
  Duration: 00:00:02.00, start: 0.000000, bitrate: 1007 kb/s
    Stream #2:0(ita): Audio: aac (LC) (mp4a / 0x6134706D), 44100 Hz, stereo, fltp, 102 kb/s (default)
    Metadata:
      creation_time   : 2021-07-11T07:02:58.000000Z
      handler_name    : Core Media Audio
    Stream #2:1(und): Video: h264 (High), 1 reference frame (avc1 / 0x31637661), yuv420p(tv, bt709, progressive, left), 1280x720 [SAR 1:1 DAR 16:9], 813 kb/s, 25 fps, 25 tbr, 25k tbn, 50k tbc (default)
    Metadata:
      creation_time   : 2021-07-11T07:02:58.000000Z
      handler_name    : Core Media Video
[Parsed_scale_0 @ 0x556995730d00] w:1280 h:720 flags:'bilinear' interl:0
[Parsed_scale_2 @ 0x5569957da8c0] w:1280 h:720 flags:'bilinear' interl:0
[Parsed_scale_4 @ 0x556995714900] w:1280 h:720 flags:'bilinear' interl:0
Stream specifier ':a' in filtergraph description [0:v] scale=w=1280:h=720, setsar=1 [video-scaled];         [1:v] scale=w=1280:h=720, setsar=1 [wm-watermarks];         [2:v] scale=w=1280:h=720, setsar=1 [video2];         [video-scaled][wm-watermarks]overlay=0:0 [video0];         [video0][0:a][video2][2:a] concat=n=2:v=1:a=1[v][a] matches no streams.
[AVIOContext @ 0x5569956b2400] Statistics: 78148 bytes read, 0 seeks
[AVIOContext @ 0x5569956ae900] Statistics: 111578 bytes read, 0 seeks
[AVIOContext @ 0x5569956b18c0] Statistics: 65536 bytes read, 1 seeks
